<svg width="169" height="31" viewBox="0 0 169 31" fill="none" xmlns="http://www.w3.org/2000/svg">
<path d="M19.1134 29.2174H22.0693C26.1857 29.2174 29.5229 25.8802 29.5229 21.7638V1.52776H9.28687C5.17048 1.52776 1.83325 4.86499 1.83325 8.98137V11.8878" stroke="url(#paint0_linear_112_409)" stroke-width="3.05551" stroke-miterlimit="10" stroke-linecap="round"/>
<path d="M1.83325 18.399V29.1666H12.5514" stroke="url(#paint1_linear_112_409)" stroke-width="3.66661" stroke-miterlimit="10" stroke-linecap="round"/>
<path d="M8.15381 23.1198C8.70319 16.9257 11.2124 11.7081 15.6765 7.3827C17.5966 9.20745 19.1616 11.2589 20.4058 13.5573C22.2489 16.9611 23.0592 20.5886 23.2016 23.3624C21.0255 23.2732 18.9153 22.8906 16.8962 22.1793C17.9088 21.7387 18.9263 21.2999 19.9395 20.852C20.2842 20.6992 20.2811 20.6876 20.2054 20.3307C19.5588 17.2936 18.3274 14.5149 16.5094 11.9977C16.2277 11.6079 15.9166 11.2388 15.6203 10.8611C14.0234 12.0809 10.9808 18.3856 10.9808 20.4841C13.6165 20.0203 16.0664 19.0939 18.3892 17.7122C18.4845 17.9694 18.5804 18.2072 18.6611 18.4504C18.8139 18.9093 18.9526 19.3725 19.1078 19.8309C19.1665 20.0044 19.1262 20.0918 18.9593 20.1816C17.5727 20.9296 16.1336 21.5517 14.6309 22.0253C12.6155 22.6603 10.553 23.0318 8.44103 23.1204C8.3567 23.1241 8.27175 23.1204 8.15442 23.1204L8.15381 23.1198Z" fill="url(#paint2_linear_112_409)"/>
<path d="M12.693 18.9692C13.3597 16.7509 14.3527 14.7324 15.6972 12.8221C16.0247 13.3097 16.3559 13.7534 16.6328 14.2282C17.0477 14.9396 17.4235 15.6735 17.8201 16.3958C17.891 16.5248 17.8776 16.6018 17.7444 16.6836C16.1909 17.6394 14.5514 18.4063 12.8097 18.9496C12.7877 18.9563 12.7633 18.9576 12.6924 18.9692H12.693Z" fill="url(#paint3_linear_112_409)"/>
<path d="M42.705 24.0695C41.9625 24.0695 41.3043 23.8672 40.7305 23.4621C40.1567 23.0569 39.7094 22.5045 39.3891 21.8041C39.0683 21.1038 38.9082 20.2978 38.9082 19.3866V5.56532C38.9082 5.19438 39.0261 4.89066 39.2626 4.65417C39.4985 4.41828 39.8022 4.29973 40.1738 4.29973C40.5453 4.29973 40.8485 4.41828 41.0849 4.65417C41.3208 4.89066 41.4394 5.19438 41.4394 5.56532V19.3866C41.4394 20.0112 41.5573 20.5257 41.7938 20.9309C42.0297 21.336 42.3334 21.5383 42.705 21.5383H43.3381C43.6754 21.5383 43.9498 21.6569 44.1606 21.8928C44.3715 22.1293 44.4772 22.433 44.4772 22.8039C44.4772 23.1748 44.3165 23.4792 43.9962 23.7151C43.6754 23.9516 43.2623 24.0695 42.7557 24.0695H42.705Z" fill="black"/>
<path d="M52.779 24.1708C51.547 24.1708 50.4415 23.8628 49.4631 23.2468C48.4841 22.6308 47.7123 21.7954 47.147 20.7407C46.5818 19.6859 46.2988 18.4918 46.2988 17.159C46.2988 15.8262 46.6068 14.6278 47.2228 13.5645C47.8388 12.5012 48.6742 11.6621 49.7289 11.0455C50.7831 10.4295 51.9692 10.1216 53.2856 10.1216C54.6019 10.1216 55.7831 10.4295 56.8293 11.0455C57.8756 11.6615 58.7066 12.5012 59.3226 13.5645C59.9386 14.6278 60.2466 15.8262 60.2466 17.159H59.2597C59.2597 18.4924 58.9768 19.6865 58.4115 20.7407C57.8456 21.7954 57.0738 22.6308 56.0954 23.2468C55.1164 23.8628 54.0109 24.1708 52.7796 24.1708H52.779ZM53.2856 21.8926C54.146 21.8926 54.9142 21.6861 55.5888 21.2723C56.2635 20.8592 56.7951 20.294 57.1838 19.5765C57.5718 18.8597 57.7662 18.0537 57.7662 17.159C57.7662 16.2644 57.5718 15.4339 57.1838 14.7164C56.7951 13.9996 56.2641 13.4343 55.5888 13.0206C54.9135 12.6075 54.146 12.4004 53.2856 12.4004C52.4251 12.4004 51.6784 12.6075 50.9945 13.0206C50.3113 13.4343 49.7705 13.9996 49.3745 14.7164C48.9779 15.4339 48.7799 16.2479 48.7799 17.159C48.7799 18.0702 48.9779 18.8591 49.3745 19.5765C49.7711 20.294 50.3113 20.8592 50.9945 21.2723C51.6777 21.6861 52.4416 21.8926 53.2856 21.8926ZM58.956 24.095C58.5844 24.095 58.2764 23.9728 58.032 23.7277C57.7869 23.4833 57.6647 23.1753 57.6647 22.8038V18.9306L58.1457 16.2472L60.2466 17.1584V22.8031C60.2466 23.1747 60.1238 23.4827 59.8794 23.7271C59.6343 23.9722 59.3263 24.0944 58.9554 24.0944L58.956 24.095Z" fill="black"/>
<path d="M65.3855 24.0951C65.0139 24.0951 64.706 23.9728 64.4615 23.7278C64.2165 23.4834 64.0942 23.1754 64.0942 22.8038V11.5394C64.0942 11.1513 64.2165 10.839 64.4615 10.6025C64.706 10.3666 65.0139 10.2481 65.3855 10.2481C65.757 10.2481 66.0858 10.3666 66.3223 10.6025C66.5582 10.839 66.6768 11.1513 66.6768 11.5394V22.8038C66.6768 23.1754 66.5582 23.4834 66.3223 23.7278C66.0858 23.9728 65.7735 24.0951 65.3855 24.0951ZM73.8401 24.0951C73.4686 24.0951 73.1606 23.9728 72.9161 23.7278C72.6711 23.4834 72.5488 23.1754 72.5488 22.8038V15.5641C72.5488 14.5008 72.2873 13.7124 71.7642 13.1973C71.2411 12.6827 70.5573 12.4255 69.7139 12.4255C68.8706 12.4255 68.1104 12.7292 67.5372 13.3366C66.9634 13.944 66.6768 14.7208 66.6768 15.6655H65.0818C65.0818 14.5686 65.3012 13.6024 65.7399 12.7671C66.1787 11.9317 66.7861 11.2778 67.5629 10.8054C68.339 10.333 69.2251 10.0965 70.2205 10.0965C71.216 10.0965 72.0343 10.308 72.7774 10.7296C73.5199 11.1519 74.0974 11.7716 74.5111 12.5905C74.9242 13.4093 75.1314 14.4005 75.1314 15.5647V22.8044C75.1314 23.176 75.0128 23.484 74.7769 23.7284C74.5404 23.9735 74.2282 24.0957 73.8401 24.0957V24.0951ZM82.2696 24.0951C81.8981 24.0951 81.5901 23.9728 81.3457 23.7278C81.1006 23.4834 80.9784 23.1754 80.9784 22.8038V15.5641C80.9784 14.5008 80.7162 13.7124 80.1937 13.1973C79.6706 12.6827 78.9868 12.4255 78.1435 12.4255C77.3002 12.4255 76.5442 12.7292 75.979 13.3366C75.4137 13.944 75.1308 14.7208 75.1308 15.6655H73.0298C73.0298 14.5686 73.2657 13.6024 73.7387 12.7671C74.211 11.9317 74.8735 11.2778 75.726 10.8054C76.5778 10.333 77.5525 10.0965 78.6495 10.0965C79.6114 10.0965 80.4632 10.308 81.2063 10.7296C81.9488 11.1519 82.5269 11.7716 82.9406 12.5905C83.3537 13.4093 83.5609 14.4005 83.5609 15.5647V22.8044C83.5609 23.176 83.443 23.484 83.2065 23.7284C82.97 23.9735 82.6577 24.0957 82.2696 24.0957V24.0951Z" fill="black"/>
<path d="M92.8752 24.1709C91.6939 24.1709 90.6007 23.99 89.5972 23.6264C88.5932 23.2634 87.8128 22.8038 87.2555 22.2465C87.0025 21.977 86.8968 21.6684 86.939 21.3225C86.9811 20.9766 87.1455 20.6937 87.4327 20.4743C87.77 20.2048 88.1037 20.0905 88.4325 20.1327C88.7619 20.1749 89.0442 20.3227 89.2807 20.5757C89.5673 20.8966 90.0275 21.196 90.6606 21.4747C91.2937 21.7533 91.9977 21.8921 92.7744 21.8921C93.7527 21.8921 94.4995 21.7319 95.0147 21.4111C95.5292 21.0909 95.795 20.6772 95.8122 20.1706C95.8287 19.664 95.5885 19.2258 95.0904 18.8543C94.5924 18.4833 93.6855 18.1796 92.3692 17.9431C90.6642 17.6058 89.4286 17.0992 88.661 16.4245C87.8929 15.7499 87.5091 14.9224 87.5091 13.9441C87.5091 13.0836 87.7621 12.3705 88.2687 11.8052C88.7753 11.2399 89.4243 10.8183 90.2181 10.5396C91.0113 10.2609 91.8382 10.1222 92.6986 10.1222C93.8126 10.1222 94.7996 10.2994 95.66 10.6539C96.5204 11.0083 97.2042 11.4978 97.7102 12.1224C97.9461 12.3925 98.0561 12.6754 98.039 12.9706C98.0219 13.2657 97.8783 13.5151 97.6088 13.7173C97.3387 13.9031 97.0179 13.9624 96.6469 13.8946C96.2754 13.8273 95.9637 13.6752 95.7101 13.4387C95.2878 13.0335 94.8326 12.7555 94.3431 12.6033C93.8536 12.4511 93.2883 12.3754 92.6473 12.3754C91.9042 12.3754 91.2759 12.5019 90.7614 12.7549C90.2462 13.0078 89.9896 13.3794 89.9896 13.8689C89.9896 14.1726 90.0696 14.447 90.2297 14.6914C90.3898 14.9365 90.7064 15.1559 91.1788 15.3496C91.6512 15.5439 92.3429 15.734 93.2547 15.9191C94.5203 16.1721 95.52 16.493 96.2546 16.881C96.9885 17.2697 97.5159 17.7207 97.8367 18.2352C98.157 18.7504 98.3177 19.345 98.3177 20.0196C98.3177 20.7963 98.1111 21.4967 97.6974 22.1206C97.2837 22.7452 96.6763 23.2432 95.8745 23.6141C95.0727 23.9857 94.073 24.1709 92.8746 24.1709H92.8752Z" fill="black"/>
<path d="M101.001 12.9064C100.647 12.9064 100.359 12.8049 100.141 12.6027C99.9213 12.4004 99.8113 12.1468 99.8113 11.8431C99.8113 11.5057 99.9207 11.2356 100.141 11.0327C100.359 10.8305 100.647 10.729 101.001 10.729H106.849C107.203 10.729 107.49 10.8305 107.709 11.0327C107.928 11.235 108.038 11.5051 108.038 11.8431C108.038 12.1468 107.928 12.3998 107.709 12.6027C107.49 12.8049 107.203 12.9064 106.849 12.9064H101.001ZM106.621 24.0694C105.777 24.0694 105.017 23.8543 104.343 23.4241C103.667 22.9938 103.136 22.4078 102.748 21.6647C102.359 20.9222 102.165 20.0868 102.165 19.1586V7.08441C102.165 6.71347 102.283 6.40975 102.52 6.17326C102.756 5.93737 103.059 5.81882 103.431 5.81882C103.802 5.81882 104.105 5.93737 104.342 6.17326C104.578 6.40975 104.696 6.71347 104.696 7.08441V19.1592C104.696 19.8344 104.882 20.3997 105.253 20.855C105.624 21.3109 106.08 21.5382 106.62 21.5382H107.481C107.784 21.5382 108.042 21.6568 108.252 21.8926C108.463 22.1291 108.569 22.4329 108.569 22.8038C108.569 23.1747 108.43 23.4791 108.152 23.7149C107.873 23.9514 107.514 24.0694 107.075 24.0694H106.62H106.621Z" fill="black"/>
<path d="M117.505 24.1708C116.273 24.1708 115.168 23.8628 114.189 23.2468C113.21 22.6308 112.438 21.7954 111.873 20.7407C111.308 19.6859 111.025 18.4918 111.025 17.159C111.025 15.8262 111.333 14.6278 111.949 13.5645C112.565 12.5012 113.4 11.6621 114.455 11.0455C115.509 10.4295 116.695 10.1216 118.012 10.1216C119.328 10.1216 120.509 10.4295 121.555 11.0455C122.602 11.6615 123.433 12.5012 124.049 13.5645C124.665 14.6278 124.973 15.8262 124.973 17.159H123.986C123.986 18.4924 123.703 19.6865 123.138 20.7407C122.572 21.7954 121.8 22.6308 120.821 23.2468C119.842 23.8628 118.737 24.1708 117.506 24.1708H117.505ZM118.012 21.8926C118.872 21.8926 119.64 21.6861 120.315 21.2723C120.99 20.8592 121.521 20.294 121.91 19.5765C122.298 18.8597 122.492 18.0537 122.492 17.159C122.492 16.2644 122.298 15.4339 121.91 14.7164C121.521 13.9996 120.99 13.4343 120.315 13.0206C119.64 12.6075 118.872 12.4004 118.012 12.4004C117.151 12.4004 116.404 12.6075 115.721 13.0206C115.037 13.4343 114.497 13.9996 114.101 14.7164C113.704 15.4339 113.506 16.2479 113.506 17.159C113.506 18.0702 113.704 18.8591 114.101 19.5765C114.497 20.294 115.037 20.8592 115.721 21.2723C116.404 21.6861 117.168 21.8926 118.012 21.8926ZM123.682 24.095C123.311 24.095 123.003 23.9728 122.758 23.7277C122.513 23.4833 122.391 23.1753 122.391 22.8038V18.9306L122.872 16.2472L124.973 17.1584V22.8031C124.973 23.1747 124.85 23.4827 124.605 23.7271C124.36 23.9722 124.052 24.0944 123.681 24.0944L123.682 24.095Z" fill="black"/>
<path d="M135.098 24.1708C133.748 24.1708 132.545 23.8628 131.491 23.2468C130.436 22.6308 129.609 21.7954 129.01 20.7407C128.411 19.6859 128.111 18.4918 128.111 17.159C128.111 15.8262 128.406 14.5771 128.997 13.5138C129.588 12.4505 130.398 11.6194 131.428 11.0205C132.457 10.4216 133.638 10.1216 134.972 10.1216C135.967 10.1216 136.878 10.3116 137.706 10.6911C138.532 11.0706 139.275 11.6401 139.933 12.3997C140.169 12.6698 140.253 12.9485 140.186 13.2351C140.118 13.5223 139.933 13.7753 139.629 13.9947C139.393 14.1634 139.131 14.2184 138.845 14.1591C138.558 14.1004 138.296 13.9526 138.06 13.7161C137.233 12.8385 136.204 12.3997 134.972 12.3997C134.111 12.3997 133.352 12.5983 132.693 12.9943C132.035 13.3909 131.52 13.9434 131.149 14.6523C130.778 15.3611 130.592 16.1965 130.592 17.1584C130.592 18.0695 130.782 18.8799 131.162 19.5887C131.541 20.2976 132.069 20.8586 132.744 21.2723C133.419 21.6861 134.203 21.8926 135.098 21.8926C135.688 21.8926 136.207 21.8211 136.655 21.6775C137.101 21.5345 137.511 21.3102 137.882 21.0065C138.152 20.7877 138.43 20.6649 138.718 20.6392C139.004 20.6142 139.257 20.6942 139.477 20.88C139.764 21.1165 139.924 21.3823 139.958 21.6775C139.992 21.9727 139.89 22.2385 139.654 22.475C138.44 23.6055 136.92 24.1708 135.098 24.1708Z" fill="black"/>
<path d="M145.274 24.0694C144.902 24.0694 144.603 23.9557 144.375 23.7278C144.147 23.4998 144.033 23.2004 144.033 22.8288V5.54014C144.033 5.16921 144.147 4.86915 144.375 4.64121C144.603 4.41327 144.902 4.29961 145.274 4.29961C145.645 4.29961 145.945 4.41327 146.173 4.64121C146.401 4.86915 146.514 5.16859 146.514 5.54014V22.8295C146.514 23.201 146.401 23.5004 146.173 23.7284C145.945 23.9563 145.645 24.07 145.274 24.07V24.0694ZM146.464 19.0064L144.894 17.2849L152.666 10.3489C152.919 10.113 153.201 10.003 153.514 10.0195C153.826 10.0366 154.092 10.1717 154.311 10.4247C154.547 10.6777 154.657 10.9563 154.641 11.2601C154.624 11.5638 154.489 11.8339 154.236 12.0698L146.464 19.0058L146.464 19.0064ZM154.311 23.9423C154.041 24.1617 153.741 24.2588 153.412 24.2332C153.083 24.2081 152.808 24.0602 152.589 23.7901L147.45 17.4365L149.223 15.7657L154.488 22.2458C154.707 22.516 154.804 22.8068 154.779 23.1191C154.753 23.4314 154.597 23.7058 154.311 23.9417V23.9423Z" fill="black"/>
<path d="M163.474 24.1709C162.293 24.1709 161.2 23.99 160.196 23.6264C159.192 23.2634 158.412 22.8038 157.854 22.2465C157.601 21.977 157.496 21.6684 157.538 21.3225C157.58 20.9766 157.744 20.6937 158.032 20.4743C158.369 20.2048 158.703 20.0905 159.031 20.1327C159.361 20.1749 159.643 20.3227 159.88 20.5757C160.166 20.8966 160.626 21.196 161.259 21.4747C161.893 21.7533 162.597 21.8921 163.373 21.8921C164.352 21.8921 165.098 21.7319 165.614 21.4111C166.128 21.0909 166.394 20.6772 166.411 20.1706C166.428 19.664 166.187 19.2258 165.689 18.8543C165.191 18.4833 164.284 18.1796 162.968 17.9431C161.263 17.6058 160.027 17.0992 159.26 16.4245C158.492 15.7499 158.108 14.9224 158.108 13.9441C158.108 13.0836 158.361 12.3705 158.868 11.8052C159.374 11.2399 160.023 10.8183 160.817 10.5396C161.61 10.2609 162.437 10.1222 163.297 10.1222C164.412 10.1222 165.398 10.2994 166.259 10.6539C167.119 11.0083 167.803 11.4978 168.309 12.1224C168.545 12.3925 168.655 12.6754 168.638 12.9706C168.621 13.2657 168.477 13.5151 168.208 13.7173C167.938 13.9031 167.617 13.9624 167.246 13.8946C166.874 13.8273 166.563 13.6752 166.309 13.4387C165.887 13.0335 165.431 12.7555 164.942 12.6033C164.452 12.4511 163.887 12.3754 163.246 12.3754C162.503 12.3754 161.875 12.5019 161.36 12.7549C160.845 13.0078 160.588 13.3794 160.588 13.8689C160.588 14.1726 160.669 14.447 160.829 14.6914C160.989 14.9365 161.305 15.1559 161.778 15.3496C162.25 15.5439 162.942 15.734 163.854 15.9191C165.119 16.1721 166.119 16.493 166.853 16.881C167.587 17.2697 168.115 17.7207 168.436 18.2352C168.756 18.7504 168.917 19.345 168.917 20.0196C168.917 20.7963 168.71 21.4967 168.296 22.1206C167.883 22.7452 167.275 23.2432 166.473 23.6141C165.672 23.9857 164.672 24.1709 163.473 24.1709H163.474Z" fill="black"/>
<defs>
<linearGradient id="paint0_linear_112_409" x1="0.305496" y1="15.3723" x2="31.0507" y2="15.3723" gradientUnits="userSpaceOnUse">
<stop stop-color="#1F27FF"/>
<stop offset="1" stop-color="#BA03F1"/>
</linearGradient>
<linearGradient id="paint1_linear_112_409" x1="-5.51119e-05" y1="23.7828" x2="14.3847" y2="23.7828" gradientUnits="userSpaceOnUse">
<stop stop-color="#1F27FF"/>
<stop offset="1" stop-color="#BA03F1"/>
</linearGradient>
<linearGradient id="paint2_linear_112_409" x1="8.15381" y1="15.3722" x2="23.2016" y2="15.3722" gradientUnits="userSpaceOnUse">
<stop stop-color="#FFE200"/>
<stop offset="0.45" stop-color="#FF9200"/>
<stop offset="0.52" stop-color="#FF870A"/>
<stop offset="0.64" stop-color="#FF6B26"/>
<stop offset="0.81" stop-color="#FF3E54"/>
<stop offset="1" stop-color="#FF0093"/>
</linearGradient>
<linearGradient id="paint3_linear_112_409" x1="12.693" y1="15.8953" x2="17.8623" y2="15.8953" gradientUnits="userSpaceOnUse">
<stop stop-color="#FFE200"/>
<stop offset="0.45" stop-color="#FF9200"/>
<stop offset="0.52" stop-color="#FF870A"/>
<stop offset="0.64" stop-color="#FF6B26"/>
<stop offset="0.81" stop-color="#FF3E54"/>
<stop offset="1" stop-color="#FF0093"/>
</linearGradient>
</defs>
</svg>
